<svg xmlns="http://www.w3.org/2000/svg" xmlns:xlink="http://www.w3.org/1999/xlink" width="40" zoomAndPan="magnify" viewBox="0 0 30 30.000001" height="40" preserveAspectRatio="xMidYMid meet" version="1.0"><defs><clipPath id="ccbfe22458"><path d="M 0.484375 0 L 29.515625 0 L 29.515625 29.03125 L 0.484375 29.03125 Z M 0.484375 0 " clip-rule="nonzero"/></clipPath><clipPath id="fe2da1c45b"><path d="M 4.355469 6.78125 L 23.703125 6.78125 L 23.703125 26.128906 L 4.355469 26.128906 Z M 4.355469 6.78125 " clip-rule="nonzero"/></clipPath><clipPath id="68e1860add"><path d="M 14.03125 6.78125 C 8.6875 6.78125 4.355469 11.113281 4.355469 16.457031 C 4.355469 21.796875 8.6875 26.128906 14.03125 26.128906 C 19.375 26.128906 23.703125 21.796875 23.703125 16.457031 C 23.703125 11.113281 19.375 6.78125 14.03125 6.78125 Z M 14.03125 6.78125 " clip-rule="nonzero"/></clipPath><clipPath id="934e571621"><path d="M 0.355469 0.78125 L 19.703125 0.78125 L 19.703125 20.128906 L 0.355469 20.128906 Z M 0.355469 0.78125 " clip-rule="nonzero"/></clipPath><clipPath id="c91dde55d4"><path d="M 10.03125 0.78125 C 4.6875 0.78125 0.355469 5.113281 0.355469 10.457031 C 0.355469 15.796875 4.6875 20.128906 10.03125 20.128906 C 15.375 20.128906 19.703125 15.796875 19.703125 10.457031 C 19.703125 5.113281 15.375 0.78125 10.03125 0.78125 Z M 10.03125 0.78125 " clip-rule="nonzero"/></clipPath><clipPath id="4e77912b89"><rect x="0" width="20" y="0" height="21"/></clipPath><clipPath id="662d93e145"><path d="M 4.355469 2.914062 L 10.886719 2.914062 L 10.886719 21.785156 L 4.355469 21.785156 Z M 4.355469 2.914062 " clip-rule="nonzero"/></clipPath><clipPath id="3502910173"><path d="M 19.835938 4.050781 L 25.640625 4.050781 L 25.640625 9.859375 L 19.835938 9.859375 Z M 19.835938 4.050781 " clip-rule="nonzero"/></clipPath><clipPath id="e2821a15cb"><path d="M 9.847656 12.347656 L 18.058594 12.347656 L 18.058594 20.5625 L 9.847656 20.5625 Z M 9.847656 12.347656 " clip-rule="nonzero"/></clipPath><clipPath id="1d59cf7e60"><path d="M 13.953125 12.347656 C 11.683594 12.347656 9.847656 14.1875 9.847656 16.457031 C 9.847656 18.722656 11.683594 20.5625 13.953125 20.5625 C 16.21875 20.5625 18.058594 18.722656 18.058594 16.457031 C 18.058594 14.1875 16.21875 12.347656 13.953125 12.347656 Z M 13.953125 12.347656 " clip-rule="nonzero"/></clipPath><clipPath id="e6b10d5295"><path d="M 0.847656 0.347656 L 9.058594 0.347656 L 9.058594 8.5625 L 0.847656 8.5625 Z M 0.847656 0.347656 " clip-rule="nonzero"/></clipPath><clipPath id="093a59f2a2"><path d="M 4.953125 0.347656 C 2.683594 0.347656 0.847656 2.1875 0.847656 4.457031 C 0.847656 6.722656 2.683594 8.5625 4.953125 8.5625 C 7.21875 8.5625 9.058594 6.722656 9.058594 4.457031 C 9.058594 2.1875 7.21875 0.347656 4.953125 0.347656 Z M 4.953125 0.347656 " clip-rule="nonzero"/></clipPath><clipPath id="badf345b28"><rect x="0" width="10" y="0" height="9"/></clipPath></defs><g clip-path="url(#ccbfe22458)"><path fill="#ffffff" d="M 0.484375 0 L 29.515625 0 L 29.515625 29.03125 L 0.484375 29.03125 Z M 0.484375 0 " fill-opacity="1" fill-rule="nonzero"/><path fill="#000000" d="M 0.484375 0 L 29.515625 0 L 29.515625 29.03125 L 0.484375 29.03125 Z M 0.484375 0 " fill-opacity="1" fill-rule="nonzero"/></g><g clip-path="url(#fe2da1c45b)"><g clip-path="url(#68e1860add)"><g transform="matrix(1, 0, 0, 1, 4, 6)"><g clip-path="url(#4e77912b89)"><g clip-path="url(#934e571621)"><g clip-path="url(#c91dde55d4)"><path fill="#ffffff" d="M 0.355469 0.78125 L 19.703125 0.78125 L 19.703125 20.128906 L 0.355469 20.128906 Z M 0.355469 0.78125 " fill-opacity="1" fill-rule="nonzero"/></g></g></g></g></g></g><g clip-path="url(#662d93e145)"><path fill="#ffffff" d="M 4.355469 2.921875 L 4.355469 15.519531 C 4.355469 18.972656 7.152344 21.769531 10.605469 21.769531 L 10.605469 9.167969 C 10.605469 5.71875 7.808594 2.921875 4.355469 2.921875 Z M 4.355469 2.921875 " fill-opacity="1" fill-rule="nonzero"/></g><g clip-path="url(#3502910173)"><path fill="#d6df22" d="M 24.859375 9.972656 L 25.640625 9.972656 L 25.640625 4.050781 L 19.722656 4.050781 L 19.722656 4.832031 C 22.191406 5.558594 24.136719 7.503906 24.859375 9.972656 Z M 24.859375 9.972656 " fill-opacity="1" fill-rule="nonzero"/></g><g clip-path="url(#e2821a15cb)"><g clip-path="url(#1d59cf7e60)"><g transform="matrix(1, 0, 0, 1, 9, 12)"><g clip-path="url(#badf345b28)"><g clip-path="url(#e6b10d5295)"><g clip-path="url(#093a59f2a2)"><path fill="#000000" d="M 0.847656 0.347656 L 9.058594 0.347656 L 9.058594 8.5625 L 0.847656 8.5625 Z M 0.847656 0.347656 " fill-opacity="1" fill-rule="nonzero"/></g></g></g></g></g></g></svg>