<svg xmlns="http://www.w3.org/2000/svg" xmlns:xlink="http://www.w3.org/1999/xlink" width="200" zoomAndPan="magnify" viewBox="0 0 150 44.999999" height="60" preserveAspectRatio="xMidYMid meet" version="1.0"><defs><clipPath id="9aed446cae"><path d="M 58.503906 10.511719 L 88.492188 10.511719 L 88.492188 40.5 L 58.503906 40.5 Z M 58.503906 10.511719 " clip-rule="nonzero"/></clipPath><clipPath id="f9cabeeafa"><path d="M 73.496094 10.511719 C 65.214844 10.511719 58.503906 17.222656 58.503906 25.503906 C 58.503906 33.785156 65.214844 40.5 73.496094 40.5 C 81.777344 40.5 88.492188 33.785156 88.492188 25.503906 C 88.492188 17.222656 81.777344 10.511719 73.496094 10.511719 Z M 73.496094 10.511719 " clip-rule="nonzero"/></clipPath><clipPath id="b64b399c07"><path d="M 0.503906 0.511719 L 30.492188 0.511719 L 30.492188 30.5 L 0.503906 30.5 Z M 0.503906 0.511719 " clip-rule="nonzero"/></clipPath><clipPath id="316def5daf"><path d="M 15.496094 0.511719 C 7.214844 0.511719 0.503906 7.222656 0.503906 15.503906 C 0.503906 23.785156 7.214844 30.5 15.496094 30.5 C 23.777344 30.5 30.492188 23.785156 30.492188 15.503906 C 30.492188 7.222656 23.777344 0.511719 15.496094 0.511719 Z M 15.496094 0.511719 " clip-rule="nonzero"/></clipPath><clipPath id="0d8bf5b143"><rect x="0" width="31" y="0" height="31"/></clipPath><clipPath id="ca1225d281"><path d="M 58.5 4.523438 L 68.25 4.523438 L 68.25 33.773438 L 58.5 33.773438 Z M 58.5 4.523438 " clip-rule="nonzero"/></clipPath><clipPath id="f71ff69299"><path d="M 82.496094 6.28125 L 91.496094 6.28125 L 91.496094 15.28125 L 82.496094 15.28125 Z M 82.496094 6.28125 " clip-rule="nonzero"/></clipPath><clipPath id="9b3ea192db"><path d="M 67.011719 19.140625 L 79.738281 19.140625 L 79.738281 31.867188 L 67.011719 31.867188 Z M 67.011719 19.140625 " clip-rule="nonzero"/></clipPath><clipPath id="d34d3dfb09"><path d="M 73.375 19.140625 C 69.859375 19.140625 67.011719 21.992188 67.011719 25.503906 C 67.011719 29.019531 69.859375 31.867188 73.375 31.867188 C 76.890625 31.867188 79.738281 29.019531 79.738281 25.503906 C 79.738281 21.992188 76.890625 19.140625 73.375 19.140625 Z M 73.375 19.140625 " clip-rule="nonzero"/></clipPath><clipPath id="c6be210996"><path d="M 0.0117188 0.140625 L 12.738281 0.140625 L 12.738281 12.867188 L 0.0117188 12.867188 Z M 0.0117188 0.140625 " clip-rule="nonzero"/></clipPath><clipPath id="ab9a2c03b1"><path d="M 6.375 0.140625 C 2.859375 0.140625 0.0117188 2.992188 0.0117188 6.503906 C 0.0117188 10.019531 2.859375 12.867188 6.375 12.867188 C 9.890625 12.867188 12.738281 10.019531 12.738281 6.503906 C 12.738281 2.992188 9.890625 0.140625 6.375 0.140625 Z M 6.375 0.140625 " clip-rule="nonzero"/></clipPath><clipPath id="0cf54a3162"><rect x="0" width="13" y="0" height="13"/></clipPath></defs><g clip-path="url(#9aed446cae)"><g clip-path="url(#f9cabeeafa)"><g transform="matrix(1, 0, 0, 1, 58, 10)"><g clip-path="url(#0d8bf5b143)"><g clip-path="url(#b64b399c07)"><g clip-path="url(#316def5daf)"><path fill="#ffffff" d="M 0.503906 0.511719 L 30.492188 0.511719 L 30.492188 30.5 L 0.503906 30.5 Z M 0.503906 0.511719 " fill-opacity="1" fill-rule="nonzero"/></g></g></g></g></g></g><g clip-path="url(#ca1225d281)"><path fill="#ffffff" d="M 58.5 4.523438 L 58.5 24.0625 C 58.5 29.414062 62.839844 33.753906 68.191406 33.753906 L 68.191406 14.214844 C 68.191406 8.859375 63.855469 4.523438 58.5 4.523438 Z M 58.5 4.523438 " fill-opacity="1" fill-rule="nonzero"/></g><g clip-path="url(#f71ff69299)"><path fill="#d6df22" d="M 90.285156 15.457031 L 91.496094 15.457031 L 91.496094 6.28125 L 82.320312 6.28125 L 82.320312 7.492188 C 86.144531 8.617188 89.160156 11.632812 90.285156 15.457031 Z M 90.285156 15.457031 " fill-opacity="1" fill-rule="nonzero"/></g><g clip-path="url(#9b3ea192db)"><g clip-path="url(#d34d3dfb09)"><g transform="matrix(1, 0, 0, 1, 67, 19)"><g clip-path="url(#0cf54a3162)"><g clip-path="url(#c6be210996)"><g clip-path="url(#ab9a2c03b1)"><path fill="#000000" d="M 0.0117188 0.140625 L 12.738281 0.140625 L 12.738281 12.867188 L 0.0117188 12.867188 Z M 0.0117188 0.140625 " fill-opacity="1" fill-rule="nonzero"/></g></g></g></g></g></g></svg>