<svg xmlns="http://www.w3.org/2000/svg" xmlns:xlink="http://www.w3.org/1999/xlink" width="2560" zoomAndPan="magnify" viewBox="0 0 1920 1199.999942" height="1600" preserveAspectRatio="xMidYMid meet" version="1.0"><defs><g/><clipPath id="0f98fc2fc1"><path d="M 815.121094 417.433594 L 1044.9375 417.433594 L 1044.9375 647.25 L 815.121094 647.25 Z M 815.121094 417.433594 " clip-rule="nonzero"/></clipPath><clipPath id="68acf6f934"><path d="M 930.027344 417.433594 C 866.566406 417.433594 815.121094 468.878906 815.121094 532.339844 C 815.121094 595.804688 866.566406 647.25 930.027344 647.25 C 993.492188 647.25 1044.9375 595.804688 1044.9375 532.339844 C 1044.9375 468.878906 993.492188 417.433594 930.027344 417.433594 Z M 930.027344 417.433594 " clip-rule="nonzero"/></clipPath><clipPath id="7cd1603969"><path d="M 0.121094 0.433594 L 229.9375 0.433594 L 229.9375 230.25 L 0.121094 230.25 Z M 0.121094 0.433594 " clip-rule="nonzero"/></clipPath><clipPath id="6ed498b846"><path d="M 115.027344 0.433594 C 51.566406 0.433594 0.121094 51.878906 0.121094 115.339844 C 0.121094 178.804688 51.566406 230.25 115.027344 230.25 C 178.492188 230.25 229.9375 178.804688 229.9375 115.339844 C 229.9375 51.878906 178.492188 0.433594 115.027344 0.433594 Z M 115.027344 0.433594 " clip-rule="nonzero"/></clipPath><clipPath id="252100da42"><rect x="0" width="230" y="0" height="231"/></clipPath><clipPath id="7a1306d933"><path d="M 815.117188 371.523438 L 889.367188 371.523438 L 889.367188 595.773438 L 815.117188 595.773438 Z M 815.117188 371.523438 " clip-rule="nonzero"/></clipPath><clipPath id="14189aef3f"><path d="M 997.464844 385.015625 L 1067.964844 385.015625 L 1067.964844 455.515625 L 997.464844 455.515625 Z M 997.464844 385.015625 " clip-rule="nonzero"/></clipPath><clipPath id="2035d7ed34"><path d="M 880.328125 483.574219 L 977.859375 483.574219 L 977.859375 581.109375 L 880.328125 581.109375 Z M 880.328125 483.574219 " clip-rule="nonzero"/></clipPath><clipPath id="22ae1383ac"><path d="M 929.09375 483.574219 C 902.160156 483.574219 880.328125 505.410156 880.328125 532.339844 C 880.328125 559.273438 902.160156 581.109375 929.09375 581.109375 C 956.027344 581.109375 977.859375 559.273438 977.859375 532.339844 C 977.859375 505.410156 956.027344 483.574219 929.09375 483.574219 Z M 929.09375 483.574219 " clip-rule="nonzero"/></clipPath><clipPath id="d43535d3ba"><path d="M 0.328125 0.574219 L 97.859375 0.574219 L 97.859375 98.109375 L 0.328125 98.109375 Z M 0.328125 0.574219 " clip-rule="nonzero"/></clipPath><clipPath id="09bbb261d5"><path d="M 49.09375 0.574219 C 22.160156 0.574219 0.328125 22.410156 0.328125 49.339844 C 0.328125 76.273438 22.160156 98.109375 49.09375 98.109375 C 76.027344 98.109375 97.859375 76.273438 97.859375 49.339844 C 97.859375 22.410156 76.027344 0.574219 49.09375 0.574219 Z M 49.09375 0.574219 " clip-rule="nonzero"/></clipPath><clipPath id="af25a58dfc"><rect x="0" width="98" y="0" height="99"/></clipPath><clipPath id="5dc909d1e8"><rect x="0" width="657" y="0" height="134"/></clipPath><clipPath id="57c4e7cb35"><path d="M 2 0.359375 L 48 0.359375 L 48 45 L 2 45 Z M 2 0.359375 " clip-rule="nonzero"/></clipPath><clipPath id="daa1ff1123"><rect x="0" width="51" y="0" height="55"/></clipPath></defs><rect x="-192" width="2304" fill="#ffffff" y="-119.999994" height="1439.999931" fill-opacity="1"/><rect x="-192" width="2304" fill="#000000" y="-119.999994" height="1439.999931" fill-opacity="1"/><g clip-path="url(#0f98fc2fc1)"><g clip-path="url(#68acf6f934)"><g transform="matrix(1, 0, 0, 1, 815, 417)"><g clip-path="url(#252100da42)"><g clip-path="url(#7cd1603969)"><g clip-path="url(#6ed498b846)"><path fill="#ffffff" d="M 0.121094 0.433594 L 229.9375 0.433594 L 229.9375 230.25 L 0.121094 230.25 Z M 0.121094 0.433594 " fill-opacity="1" fill-rule="nonzero"/></g></g></g></g></g></g><g clip-path="url(#7a1306d933)"><path fill="#ffffff" d="M 815.117188 371.476562 L 815.117188 521.339844 C 815.117188 562.390625 848.394531 595.671875 889.449219 595.671875 L 889.449219 445.804688 C 889.449219 404.753906 856.167969 371.476562 815.117188 371.476562 Z M 815.117188 371.476562 " fill-opacity="1" fill-rule="nonzero"/></g><g clip-path="url(#14189aef3f)"><path fill="#d6df22" d="M 1058.683594 455.339844 L 1067.964844 455.339844 L 1067.964844 385.015625 L 997.640625 385.015625 L 997.640625 394.296875 C 1026.953125 402.917969 1050.0625 426.027344 1058.683594 455.339844 Z M 1058.683594 455.339844 " fill-opacity="1" fill-rule="nonzero"/></g><g clip-path="url(#2035d7ed34)"><g clip-path="url(#22ae1383ac)"><g transform="matrix(1, 0, 0, 1, 880, 483)"><g clip-path="url(#af25a58dfc)"><g clip-path="url(#d43535d3ba)"><g clip-path="url(#09bbb261d5)"><path fill="#000000" d="M 0.328125 0.574219 L 97.859375 0.574219 L 97.859375 98.109375 L 0.328125 98.109375 Z M 0.328125 0.574219 " fill-opacity="1" fill-rule="nonzero"/></g></g></g></g></g></g><g transform="matrix(1, 0, 0, 1, 612, 669)"><g clip-path="url(#5dc909d1e8)"><g fill="#f4f4f4" fill-opacity="1"><g transform="translate(0.977042, 106.212016)"><g><path d="M 54.171875 2.3125 C 50.441406 2.3125 46.890625 1.691406 43.515625 0.453125 C 40.148438 -0.785156 37.101562 -2.535156 34.375 -4.796875 C 31.644531 -7.054688 29.410156 -9.75 27.671875 -12.875 L 27.671875 0 L 10.5625 0 L 10.5625 -104.765625 L 28.578125 -104.765625 L 28.578125 -74.03125 L 28.125 -63.984375 C 29.8125 -66.960938 31.96875 -69.554688 34.59375 -71.765625 C 37.226562 -73.972656 40.191406 -75.679688 43.484375 -76.890625 C 46.785156 -78.109375 50.269531 -78.71875 53.9375 -78.71875 C 59.394531 -78.71875 64.390625 -77.660156 68.921875 -75.546875 C 73.460938 -73.441406 77.394531 -70.539062 80.71875 -66.84375 C 84.050781 -63.15625 86.632812 -58.867188 88.46875 -53.984375 C 90.300781 -49.097656 91.21875 -43.851562 91.21875 -38.25 C 91.21875 -32.632812 90.300781 -27.375 88.46875 -22.46875 C 86.632812 -17.5625 84.039062 -13.242188 80.6875 -9.515625 C 77.34375 -5.796875 73.425781 -2.894531 68.9375 -0.8125 C 64.445312 1.269531 59.523438 2.3125 54.171875 2.3125 Z M 50.890625 -14.28125 C 54.953125 -14.28125 58.679688 -15.25 62.078125 -17.1875 C 65.484375 -19.125 68.210938 -21.890625 70.265625 -25.484375 C 72.328125 -29.078125 73.359375 -33.332031 73.359375 -38.25 C 73.359375 -43.050781 72.34375 -47.238281 70.3125 -50.8125 C 68.28125 -54.382812 65.5625 -57.160156 62.15625 -59.140625 C 58.757812 -61.128906 54.976562 -62.125 50.8125 -62.125 C 47.6875 -62.125 44.769531 -61.515625 42.0625 -60.296875 C 39.363281 -59.085938 36.984375 -57.390625 34.921875 -55.203125 C 32.867188 -53.023438 31.257812 -50.492188 30.09375 -47.609375 C 28.925781 -44.734375 28.34375 -41.613281 28.34375 -38.25 C 28.34375 -34.769531 28.9375 -31.566406 30.125 -28.640625 C 31.320312 -25.710938 32.960938 -23.171875 35.046875 -21.015625 C 37.128906 -18.859375 39.535156 -17.195312 42.265625 -16.03125 C 44.992188 -14.863281 47.867188 -14.28125 50.890625 -14.28125 Z M 50.890625 -14.28125 "/></g></g></g><g fill="#f4f4f4" fill-opacity="1"><g transform="translate(99.329823, 106.212016)"><g><path d="M 28.578125 0 L 10.5625 0 L 10.5625 -76.484375 L 27.828125 -76.484375 L 27.828125 -62.640625 C 29.609375 -66.859375 32.234375 -70.21875 35.703125 -72.71875 C 39.179688 -75.226562 43.398438 -76.484375 48.359375 -76.484375 L 56.546875 -76.484375 L 56.546875 -61.015625 L 49.328125 -61.015625 C 45.210938 -61.015625 41.59375 -60.019531 38.46875 -58.03125 C 35.34375 -56.050781 32.910156 -53.175781 31.171875 -49.40625 C 29.441406 -45.632812 28.578125 -41.019531 28.578125 -35.5625 Z M 28.578125 0 "/></g></g></g><g fill="#f4f4f4" fill-opacity="1"><g transform="translate(158.177832, 106.212016)"><g><path d="M 41.140625 2.3125 C 35.984375 2.3125 31.207031 1.269531 26.8125 -0.8125 C 22.425781 -2.894531 18.609375 -5.796875 15.359375 -9.515625 C 12.109375 -13.242188 9.59375 -17.5625 7.8125 -22.46875 C 6.03125 -27.375 5.140625 -32.632812 5.140625 -38.25 C 5.140625 -43.851562 6.039062 -49.097656 7.84375 -53.984375 C 9.65625 -58.867188 12.1875 -63.171875 15.4375 -66.890625 C 18.6875 -70.609375 22.492188 -73.519531 26.859375 -75.625 C 31.222656 -77.738281 35.957031 -78.796875 41.0625 -78.796875 C 47.3125 -78.796875 52.867188 -77.441406 57.734375 -74.734375 C 62.597656 -72.035156 66.242188 -68.304688 68.671875 -63.546875 L 68.671875 -76.484375 L 85.78125 -76.484375 L 85.78125 0 L 68.671875 0 L 68.671875 -12.875 C 66.191406 -8.113281 62.53125 -4.390625 57.6875 -1.703125 C 52.851562 0.972656 47.335938 2.3125 41.140625 2.3125 Z M 45.453125 -14.359375 C 48.578125 -14.359375 51.503906 -14.960938 54.234375 -16.171875 C 56.960938 -17.390625 59.351562 -19.078125 61.40625 -21.234375 C 63.46875 -23.398438 65.066406 -25.929688 66.203125 -28.828125 C 67.347656 -31.734375 67.921875 -34.875 67.921875 -38.25 C 67.921875 -41.570312 67.335938 -44.679688 66.171875 -47.578125 C 65.015625 -50.484375 63.414062 -53.023438 61.375 -55.203125 C 59.34375 -57.390625 56.960938 -59.085938 54.234375 -60.296875 C 51.503906 -61.515625 48.578125 -62.125 45.453125 -62.125 C 41.335938 -62.125 37.582031 -61.128906 34.1875 -59.140625 C 30.789062 -57.160156 28.070312 -54.382812 26.03125 -50.8125 C 24 -47.238281 22.984375 -43.050781 22.984375 -38.25 C 22.984375 -33.28125 24.015625 -29.007812 26.078125 -25.4375 C 28.140625 -21.875 30.878906 -19.132812 34.296875 -17.21875 C 37.722656 -15.3125 41.441406 -14.359375 45.453125 -14.359375 Z M 45.453125 -14.359375 "/></g></g></g><g fill="#f4f4f4" fill-opacity="1"><g transform="translate(254.52191, 106.212016)"><g><path d="M 47.984375 0 L 31.25 0 L 0.75 -76.484375 L 19.859375 -76.484375 L 37.640625 -30.28125 L 39.65625 -22.25 L 41.59375 -30.203125 L 59.375 -76.484375 L 78.640625 -76.484375 Z M 47.984375 0 "/></g></g></g><g fill="#f4f4f4" fill-opacity="1"><g transform="translate(333.82907, 106.212016)"><g><path d="M 41.140625 2.3125 C 35.984375 2.3125 31.207031 1.269531 26.8125 -0.8125 C 22.425781 -2.894531 18.609375 -5.796875 15.359375 -9.515625 C 12.109375 -13.242188 9.59375 -17.5625 7.8125 -22.46875 C 6.03125 -27.375 5.140625 -32.632812 5.140625 -38.25 C 5.140625 -43.851562 6.039062 -49.097656 7.84375 -53.984375 C 9.65625 -58.867188 12.1875 -63.171875 15.4375 -66.890625 C 18.6875 -70.609375 22.492188 -73.519531 26.859375 -75.625 C 31.222656 -77.738281 35.957031 -78.796875 41.0625 -78.796875 C 47.3125 -78.796875 52.867188 -77.441406 57.734375 -74.734375 C 62.597656 -72.035156 66.242188 -68.304688 68.671875 -63.546875 L 68.671875 -76.484375 L 85.78125 -76.484375 L 85.78125 0 L 68.671875 0 L 68.671875 -12.875 C 66.191406 -8.113281 62.53125 -4.390625 57.6875 -1.703125 C 52.851562 0.972656 47.335938 2.3125 41.140625 2.3125 Z M 45.453125 -14.359375 C 48.578125 -14.359375 51.503906 -14.960938 54.234375 -16.171875 C 56.960938 -17.390625 59.351562 -19.078125 61.40625 -21.234375 C 63.46875 -23.398438 65.066406 -25.929688 66.203125 -28.828125 C 67.347656 -31.734375 67.921875 -34.875 67.921875 -38.25 C 67.921875 -41.570312 67.335938 -44.679688 66.171875 -47.578125 C 65.015625 -50.484375 63.414062 -53.023438 61.375 -55.203125 C 59.34375 -57.390625 56.960938 -59.085938 54.234375 -60.296875 C 51.503906 -61.515625 48.578125 -62.125 45.453125 -62.125 C 41.335938 -62.125 37.582031 -61.128906 34.1875 -59.140625 C 30.789062 -57.160156 28.070312 -54.382812 26.03125 -50.8125 C 24 -47.238281 22.984375 -43.050781 22.984375 -38.25 C 22.984375 -33.28125 24.015625 -29.007812 26.078125 -25.4375 C 28.140625 -21.875 30.878906 -19.132812 34.296875 -17.21875 C 37.722656 -15.3125 41.441406 -14.359375 45.453125 -14.359375 Z M 45.453125 -14.359375 "/></g></g></g><g fill="#f4f4f4" fill-opacity="1"><g transform="translate(430.173147, 106.212016)"><g><path d="M 57.59375 0 L 42.03125 0 C 39.75 0 37.40625 -0.207031 35 -0.625 C 32.59375 -1.050781 30.296875 -1.832031 28.109375 -2.96875 C 25.929688 -4.113281 23.988281 -5.765625 22.28125 -7.921875 C 20.570312 -10.078125 19.207031 -12.878906 18.1875 -16.328125 C 17.175781 -19.773438 16.671875 -24.03125 16.671875 -29.09375 L 16.671875 -61.015625 L 0.8125 -61.015625 L 0.8125 -76.484375 L 16.671875 -76.484375 L 16.671875 -98.875 L 34.671875 -99.03125 L 34.671875 -76.484375 L 57.59375 -76.484375 L 57.59375 -61.015625 L 34.671875 -61.015625 L 34.671875 -28.265625 C 34.671875 -24.703125 35.191406 -21.953125 36.234375 -20.015625 C 37.273438 -18.078125 38.648438 -16.75 40.359375 -16.03125 C 42.078125 -15.3125 43.875 -14.953125 45.75 -14.953125 L 57.59375 -14.953125 Z M 57.59375 0 "/></g></g></g><g fill="#f4f4f4" fill-opacity="1"><g transform="translate(491.773829, 106.212016)"><g><path d="M 44.9375 2.3125 C 39.832031 2.3125 35.097656 1.601562 30.734375 0.1875 C 26.367188 -1.226562 22.546875 -3.445312 19.265625 -6.46875 C 15.992188 -9.5 13.453125 -13.421875 11.640625 -18.234375 C 9.828125 -23.046875 8.921875 -28.847656 8.921875 -35.640625 L 8.921875 -76.484375 L 26.78125 -76.484375 L 26.78125 -36.15625 C 26.78125 -29.113281 28.289062 -23.734375 31.3125 -20.015625 C 34.34375 -16.296875 38.859375 -14.4375 44.859375 -14.4375 C 50.910156 -14.4375 55.425781 -16.304688 58.40625 -20.046875 C 61.382812 -23.796875 62.875 -29.164062 62.875 -36.15625 L 62.875 -76.484375 L 80.796875 -76.484375 L 80.796875 -35.640625 C 80.796875 -28.847656 79.890625 -23.046875 78.078125 -18.234375 C 76.273438 -13.421875 73.734375 -9.5 70.453125 -6.46875 C 67.179688 -3.445312 63.375 -1.226562 59.03125 0.1875 C 54.695312 1.601562 50 2.3125 44.9375 2.3125 Z M 44.9375 2.3125 "/></g></g></g><g fill="#f4f4f4" fill-opacity="1"><g transform="translate(581.496564, 106.212016)"><g><path d="M 38.09375 2.3125 C 32.488281 2.3125 27.613281 1.566406 23.46875 0.078125 C 19.332031 -1.410156 15.910156 -3.421875 13.203125 -5.953125 C 10.503906 -8.484375 8.492188 -11.332031 7.171875 -14.5 C 5.859375 -17.675781 5.203125 -20.953125 5.203125 -24.328125 L 22.46875 -24.25 C 22.613281 -20.78125 24 -17.867188 26.625 -15.515625 C 29.257812 -13.160156 33.132812 -11.984375 38.25 -11.984375 C 42.90625 -11.984375 46.335938 -12.875 48.546875 -14.65625 C 50.753906 -16.4375 51.859375 -18.769531 51.859375 -21.65625 C 51.859375 -23.832031 51.238281 -25.539062 50 -26.78125 C 48.757812 -28.019531 46.9375 -29 44.53125 -29.71875 C 42.125 -30.4375 39.1875 -31.046875 35.71875 -31.546875 C 32.039062 -32.046875 28.550781 -32.816406 25.25 -33.859375 C 21.957031 -34.898438 19.046875 -36.335938 16.515625 -38.171875 C 13.984375 -40.003906 11.984375 -42.304688 10.515625 -45.078125 C 9.054688 -47.859375 8.328125 -51.234375 8.328125 -55.203125 C 8.328125 -59.921875 9.429688 -64.039062 11.640625 -67.5625 C 13.847656 -71.082031 17.097656 -73.832031 21.390625 -75.8125 C 25.679688 -77.800781 30.925781 -78.796875 37.125 -78.796875 C 43.28125 -78.796875 48.675781 -77.765625 53.3125 -75.703125 C 57.945312 -73.640625 61.550781 -70.757812 64.125 -67.0625 C 66.707031 -63.375 68 -59.097656 68 -54.234375 L 50.375 -54.390625 C 50.175781 -57.210938 48.972656 -59.53125 46.765625 -61.34375 C 44.554688 -63.15625 41.367188 -64.0625 37.203125 -64.0625 C 33.328125 -64.0625 30.5 -63.226562 28.71875 -61.5625 C 26.9375 -59.90625 26.046875 -57.910156 26.046875 -55.578125 C 26.046875 -53.691406 26.46875 -52.164062 27.3125 -51 C 28.15625 -49.832031 29.726562 -48.863281 32.03125 -48.09375 C 34.332031 -47.332031 37.664062 -46.601562 42.03125 -45.90625 C 46 -45.3125 49.691406 -44.515625 53.109375 -43.515625 C 56.535156 -42.523438 59.523438 -41.175781 62.078125 -39.46875 C 64.640625 -37.757812 66.640625 -35.550781 68.078125 -32.84375 C 69.515625 -30.144531 70.234375 -26.757812 70.234375 -22.6875 C 70.234375 -17.082031 68.832031 -12.429688 66.03125 -8.734375 C 63.226562 -5.046875 59.40625 -2.28125 54.5625 -0.4375 C 49.726562 1.394531 44.238281 2.3125 38.09375 2.3125 Z M 38.09375 2.3125 "/></g></g></g></g></g><g transform="matrix(1, 0, 0, 1, 1257, 657)"><g clip-path="url(#daa1ff1123)"><g clip-path="url(#57c4e7cb35)"><g fill="#ffffff" fill-opacity="1"><g transform="translate(0.173722, 43.530516)"><g><path d="M 24.90625 1.015625 C 22.382812 1.015625 20 0.644531 17.75 -0.09375 C 15.507812 -0.832031 13.457031 -1.875 11.59375 -3.21875 C 9.726562 -4.570312 8.113281 -6.160156 6.75 -7.984375 C 5.382812 -9.816406 4.332031 -11.828125 3.59375 -14.015625 C 2.851562 -16.210938 2.484375 -18.519531 2.484375 -20.9375 C 2.484375 -23.375 2.851562 -25.6875 3.59375 -27.875 C 4.332031 -30.070312 5.382812 -32.085938 6.75 -33.921875 C 8.113281 -35.765625 9.726562 -37.351562 11.59375 -38.6875 C 13.457031 -40.03125 15.507812 -41.070312 17.75 -41.8125 C 20 -42.550781 22.382812 -42.921875 24.90625 -42.921875 C 27.40625 -42.921875 29.78125 -42.550781 32.03125 -41.8125 C 34.289062 -41.070312 36.351562 -40.03125 38.21875 -38.6875 C 40.082031 -37.351562 41.691406 -35.765625 43.046875 -33.921875 C 44.398438 -32.085938 45.445312 -30.070312 46.1875 -27.875 C 46.9375 -25.6875 47.3125 -23.375 47.3125 -20.9375 C 47.3125 -18.519531 46.9375 -16.210938 46.1875 -14.015625 C 45.445312 -11.828125 44.398438 -9.816406 43.046875 -7.984375 C 41.691406 -6.160156 40.082031 -4.570312 38.21875 -3.21875 C 36.351562 -1.875 34.289062 -0.832031 32.03125 -0.09375 C 29.78125 0.644531 27.40625 1.015625 24.90625 1.015625 Z M 24.90625 -1.96875 C 27.019531 -1.96875 29.03125 -2.273438 30.9375 -2.890625 C 32.84375 -3.503906 34.585938 -4.378906 36.171875 -5.515625 C 37.765625 -6.648438 39.140625 -8 40.296875 -9.5625 C 41.453125 -11.132812 42.347656 -12.878906 42.984375 -14.796875 C 43.617188 -16.710938 43.9375 -18.757812 43.9375 -20.9375 C 43.9375 -23.6875 43.441406 -26.210938 42.453125 -28.515625 C 41.472656 -30.816406 40.113281 -32.820312 38.375 -34.53125 C 36.632812 -36.25 34.613281 -37.578125 32.3125 -38.515625 C 30.019531 -39.460938 27.550781 -39.9375 24.90625 -39.9375 C 22.28125 -39.9375 19.8125 -39.460938 17.5 -38.515625 C 15.195312 -37.578125 13.175781 -36.25 11.4375 -34.53125 C 9.695312 -32.820312 8.332031 -30.816406 7.34375 -28.515625 C 6.363281 -26.210938 5.875 -23.6875 5.875 -20.9375 C 5.875 -18.757812 6.191406 -16.710938 6.828125 -14.796875 C 7.460938 -12.878906 8.363281 -11.128906 9.53125 -9.546875 C 10.695312 -7.972656 12.070312 -6.625 13.65625 -5.5 C 15.25 -4.375 16.992188 -3.503906 18.890625 -2.890625 C 20.785156 -2.273438 22.789062 -1.96875 24.90625 -1.96875 Z M 19.3125 -7.015625 L 15.65625 -7.015625 L 15.65625 -35.171875 L 26.78125 -35.171875 C 28.007812 -35.171875 29.164062 -34.953125 30.25 -34.515625 C 31.34375 -34.078125 32.296875 -33.457031 33.109375 -32.65625 C 33.929688 -31.851562 34.570312 -30.914062 35.03125 -29.84375 C 35.5 -28.78125 35.734375 -27.625 35.734375 -26.375 C 35.734375 -24.570312 35.25 -22.960938 34.28125 -21.546875 C 33.320312 -20.140625 32.070312 -19.117188 30.53125 -18.484375 L 36.25 -7.015625 L 32.375 -7.015625 L 27.125 -17.703125 C 26.914062 -17.679688 26.695312 -17.664062 26.46875 -17.65625 C 26.25 -17.65625 26.023438 -17.65625 25.796875 -17.65625 L 19.3125 -17.65625 Z M 19.3125 -32.1875 L 19.3125 -20.59375 L 26.53125 -20.59375 C 27.582031 -20.59375 28.523438 -20.851562 29.359375 -21.375 C 30.203125 -21.90625 30.867188 -22.601562 31.359375 -23.46875 C 31.847656 -24.34375 32.09375 -25.3125 32.09375 -26.375 C 32.09375 -27.425781 31.84375 -28.390625 31.34375 -29.265625 C 30.84375 -30.148438 30.171875 -30.859375 29.328125 -31.390625 C 28.492188 -31.921875 27.550781 -32.1875 26.5 -32.1875 Z M 19.3125 -32.1875 "/></g></g></g></g></g></g></svg>